HIERARCHY
ROOT joint_Root
{
	OFFSET 0.0 0.0 0.0
	CHANNELS 6 Xposition Yposition Zposition Zrotation Xrotation Yrotation 
	JOINT Hips
	{
		OFFSET 4.5925 91.4895 -427.239
		CHANNELS 6 Xposition Yposition Zposition Zrotation Xrotation Yrotation 
		JOINT Spine
		{
			OFFSET 15.7357 0.0 0.0
			CHANNELS 6 Xposition Yposition Zposition Zrotation Xrotation Yrotation 
			JOINT Chest
			{
				OFFSET 8.98455 -0.406207 0.0
				CHANNELS 6 Xposition Yposition Zposition Zrotation Xrotation Yrotation 
				JOINT Neck
				{
					OFFSET 16.3773 0.0 0.0
					CHANNELS 6 Xposition Yposition Zposition Zrotation Xrotation Yrotation 
					JOINT Head
					{
						OFFSET 6.45672 0.0 0.0
						CHANNELS 6 Xposition Yposition Zposition Zrotation Xrotation Yrotation 
						End Site
						{
							OFFSET 0.0 0.0 0.0
						}
					}
				}
				JOINT Shoulder_L
				{
					OFFSET 12.9942 -0.242716 4.98039
					CHANNELS 6 Xposition Yposition Zposition Zrotation Xrotation Yrotation 
					JOINT UpperArm_L
					{
						OFFSET 5.34809 0.0 0.0
						CHANNELS 6 Xposition Yposition Zposition Zrotation Xrotation Yrotation 
						JOINT LowerArm_L
						{
							OFFSET 24.3286 1.87007e-05 0.0
							CHANNELS 6 Xposition Yposition Zposition Zrotation Xrotation Yrotation 
							JOINT Hand_L
							{
								OFFSET 22.2916 0.0 0.0
								CHANNELS 6 Xposition Yposition Zposition Zrotation Xrotation Yrotation 
								End Site
								{
									OFFSET 0.0 0.0 0.0
								}
							}
						}
					}
				}
				JOINT Shoulder_R
				{
					OFFSET 12.9945 -0.242716 -4.98039
					CHANNELS 6 Xposition Yposition Zposition Zrotation Xrotation Yrotation 
					JOINT UpperArm_R
					{
						OFFSET -5.34813 0.0 0.0
						CHANNELS 6 Xposition Yposition Zposition Zrotation Xrotation Yrotation 
						JOINT LowerArm_R
						{
							OFFSET -24.3289 0.000322201 0.0
							CHANNELS 6 Xposition Yposition Zposition Zrotation Xrotation Yrotation 
							JOINT Hand_R
							{
								OFFSET -22.2915 -0.000108084 0.0
								CHANNELS 6 Xposition Yposition Zposition Zrotation Xrotation Yrotation 
								End Site
								{
									OFFSET 0.0 0.0 0.0
								}
							}
						}
					}
				}
			}
		}
		JOINT UpperLeg_L
		{
			OFFSET -2.19248 -6.46944 0.0
			CHANNELS 6 Xposition Yposition Zposition Zrotation Xrotation Yrotation 
			JOINT LowerLeg_L
			{
				OFFSET 39.0811 0.0 -1.23785e-05
				CHANNELS 6 Xposition Yposition Zposition Zrotation Xrotation Yrotation 
				JOINT Foot_L
				{
					OFFSET 40.9854 0.0 -1.26872e-05
					CHANNELS 6 Xposition Yposition Zposition Zrotation Xrotation Yrotation 
					JOINT Toes_L
					{
						OFFSET 11.7543 0.0 0.0
						CHANNELS 6 Xposition Yposition Zposition Zrotation Xrotation Yrotation 
						End Site
						{
							OFFSET 0.0 0.0 0.0
						}
					}
				}
			}
		}
		JOINT UpperLeg_R
		{
			OFFSET -2.19251 6.46944 0.0
			CHANNELS 6 Xposition Yposition Zposition Zrotation Xrotation Yrotation 
			JOINT LowerLeg_R
			{
				OFFSET -39.0811 -0.00228153 -0.0401928
				CHANNELS 6 Xposition Yposition Zposition Zrotation Xrotation Yrotation 
				JOINT Foot_R
				{
					OFFSET -40.9854 0.0 0.0
					CHANNELS 6 Xposition Yposition Zposition Zrotation Xrotation Yrotation 
					JOINT Toes_R
					{
						OFFSET -11.7543 0.0 0.0
						CHANNELS 6 Xposition Yposition Zposition Zrotation Xrotation Yrotation 
						End Site
						{
							OFFSET 0.0 0.0 0.0
						}
					}
				}
			}
		}
	}
}
MOTION
Frames:	7
Frame Time:	0.0333333
0.000000 0.000000 0.000000 0.000000 0.000000 -0.000000 -0.217033 83.492500 0.351636 88.933800 -3.880160 12.282100 15.735700 0.000005 -0.000001 87.675100 82.261400 -87.665400 8.984550 -0.406207 -0.000000 7.698790 -0.625321 0.061516 16.377300 -0.000001 -0.000001 -0.957827 -2.253030 1.246840 6.456720 -0.000001 -0.000000 -4.376500 -1.525960 2.823110 12.994200 -0.242716 4.980390 -91.327100 4.025320 -71.735300 5.348090 -0.000007 -0.000001 -60.960500 17.594000 -19.367200 24.328600 0.000019 0.000005 7.575800 23.435200 -18.485500 22.291600 -0.000001 0.000005 2.240210 5.323950 -0.591635 12.994500 -0.242716 -4.980390 88.423700 8.097050 -78.943800 -5.348130 -0.000001 -0.000004 -55.907800 27.985100 -16.643600 -24.328900 0.000322 -0.000009 0.814498 3.171980 -14.436900 -22.291500 -0.000108 -0.000004 -4.704090 5.399930 -2.826120 -2.192480 -6.469440 -0.000000 -173.688000 -11.367800 -10.510800 39.081100 -0.000007 -0.000012 -0.529086 0.328212 58.188300 40.985400 -0.000006 -0.000013 0.073181 2.559370 -85.013000 11.754300 -0.000000 0.000003 -0.000508 -0.004038 -16.725100 -2.192510 6.469440 -0.000001 176.130000 12.292600 170.293000 -39.081100 -0.002282 -0.040193 0.075996 -0.045283 58.112200 -40.985400 0.000008 0.000006 6.494030 4.160990 -85.198400 -11.754300 -0.000006 -0.000006 -1.084700 -1.346020 -16.983200
0.000000 0.000000 0.000000 0.000000 0.000000 -0.000000 -0.291053 85.677100 1.238230 89.199500 -3.555960 11.913600 15.735700 0.000005 -0.000001 87.244100 83.506100 -87.445000 8.984550 -0.406207 -0.000000 5.205880 -0.618641 -0.373155 16.377300 -0.000001 -0.000001 1.455150 -1.982200 1.319680 6.456720 -0.000001 -0.000000 -2.467930 -1.314330 3.048790 12.994200 -0.242716 4.980390 -90.689300 2.015870 -71.116500 5.348090 -0.000007 -0.000001 -55.953400 2.238830 -23.183500 24.328600 0.000019 0.000005 5.200960 23.902900 -12.664000 22.291600 -0.000001 0.000005 3.090760 5.236410 1.752680 12.994500 -0.242716 -4.980390 88.704200 6.172640 -78.116400 -5.348130 -0.000001 -0.000004 -52.053800 11.474000 -19.551100 -24.328900 0.000322 -0.000009 0.562469 5.050190 -6.406570 -22.291500 -0.000108 -0.000004 -8.449930 5.273630 0.774316 -2.192480 -6.469440 -0.000000 -173.962000 -11.284100 -6.756590 39.081100 -0.000007 -0.000012 -0.450438 0.364518 51.019400 40.985400 -0.000006 -0.000013 -0.057185 2.852730 -81.991300 11.754300 -0.000000 0.000003 -0.000441 -0.003584 -16.709200 -2.192510 6.469440 -0.000001 175.559000 13.081000 173.960000 -39.081100 -0.002282 -0.040193 0.061755 -0.046906 51.283300 -40.985400 0.000008 0.000006 6.479230 5.138260 -82.072900 -11.754300 -0.000006 -0.000006 -1.066870 -1.313390 -17.367500
0.000000 0.000000 0.000000 0.000000 0.000000 -0.000000 -0.295407 87.880500 1.837980 89.403100 -3.454720 10.179300 15.735700 0.000005 -0.000001 86.040500 85.241700 -86.384900 8.984550 -0.406207 -0.000000 1.726130 -0.638616 -0.678724 16.377300 -0.000001 -0.000001 4.092810 -1.751560 1.343510 6.456720 -0.000001 -0.000000 -0.402502 -0.935036 3.397280 12.994200 -0.242716 4.980390 -89.835200 -0.466081 -70.534100 5.348090 -0.000007 -0.000001 -50.034300 -13.920000 -28.581200 24.328600 0.000019 0.000005 5.305180 27.075100 -11.530600 22.291600 -0.000001 0.000005 4.971960 5.139460 4.187300 12.994500 -0.242716 -4.980390 89.131800 3.762590 -76.992900 -5.348130 -0.000001 -0.000004 -46.595700 -6.734640 -25.528300 -24.328900 0.000322 -0.000009 0.318937 6.869580 -2.673650 -22.291500 -0.000108 -0.000004 -4.570330 5.171950 3.385930 -2.192480 -6.469440 -0.000000 -174.605000 -11.261800 -4.144100 39.081100 -0.000007 -0.000012 -0.355076 0.382373 42.880900 40.985400 -0.000006 -0.000013 -0.305307 2.756780 -78.255500 11.754300 -0.000000 0.000003 -0.000293 -0.002547 -16.672500 -2.192510 6.469440 -0.000001 175.539000 13.639600 176.195000 -39.081100 -0.002282 -0.040193 0.046094 -0.044684 43.783800 -40.985400 0.000008 0.000006 6.211050 6.049900 -77.935200 -11.754300 -0.000006 -0.000006 -1.146120 -1.395200 -17.994900
0.000000 0.000000 0.000000 0.000000 0.000000 -0.000000 -0.194604 89.460300 2.148770 89.554300 -3.931840 8.051770 15.735700 0.000005 -0.000001 84.175200 86.733100 -84.552800 8.984550 -0.406207 -0.000000 -1.267920 -0.633191 -0.762016 16.377300 -0.000001 -0.000001 5.574520 -1.544600 1.426910 6.456720 -0.000001 -0.000000 0.926397 -0.474322 3.339500 12.994200 -0.242716 4.980390 -89.095700 -2.603760 -70.836100 5.348090 -0.000007 -0.000001 -44.284400 -30.801000 -34.212200 24.328600 0.000019 0.000005 6.260620 21.454500 -16.725900 22.291600 -0.000001 0.000005 6.477750 5.124690 4.562790 12.994500 -0.242716 -4.980390 89.720600 1.197680 -76.881000 -5.348130 -0.000001 -0.000004 -41.543900 -23.543500 -33.532500 -24.328900 0.000322 -0.000009 0.440981 3.851860 -6.690720 -22.291500 -0.000108 -0.000004 2.672790 5.185010 3.205950 -2.192480 -6.469440 -0.000000 -175.258000 -11.796100 -2.687300 39.081100 -0.000007 -0.000012 -0.261726 0.359505 36.055800 40.985400 -0.000006 -0.000013 -0.429100 2.643680 -75.045200 11.754300 -0.000000 0.000003 -0.000174 -0.001648 -16.640000 -2.192510 6.469440 -0.000001 175.662000 13.975500 177.212000 -39.081100 -0.002282 -0.040193 0.032742 -0.038420 37.477700 -40.985400 0.000008 0.000006 5.942910 7.277180 -74.662400 -11.754300 -0.000006 -0.000006 -1.064190 -1.287680 -18.282700
0.000000 0.000000 0.000000 0.000000 0.000000 -0.000000 -0.045748 90.295400 2.279860 89.552000 -4.647070 6.180200 15.735700 0.000005 -0.000001 81.484800 87.843800 -81.776000 8.984550 -0.406207 -0.000000 -3.502680 -0.609598 -0.601233 16.377300 -0.000001 -0.000001 5.943490 -1.440770 1.651180 6.456720 -0.000001 -0.000000 1.402010 -0.272282 3.084720 12.994200 -0.242716 4.980390 -88.212000 -5.228720 -71.094000 5.348090 -0.000007 -0.000001 -32.408100 -39.577500 -35.131800 24.328600 0.000019 0.000005 6.338740 12.316700 -27.531300 22.291600 -0.000001 0.000005 14.443700 5.275700 0.852627 12.994500 -0.242716 -4.980390 90.503200 -2.252170 -77.400600 -5.348130 -0.000001 -0.000004 -36.026300 -35.303400 -39.809600 -24.328900 0.000322 -0.000009 -3.752780 -10.001200 -20.486800 -22.291500 -0.000108 -0.000004 11.165300 5.489100 -5.557360 -2.192480 -6.469440 -0.000000 -175.697000 -12.470400 -2.400220 39.081100 -0.000007 -0.000012 -0.228618 0.366575 31.950500 40.985400 -0.000006 -0.000013 -0.449831 2.548490 -73.112000 11.754300 -0.000000 0.000003 -0.000168 -0.001599 -16.638200 -2.192510 6.469440 -0.000001 175.750000 14.699900 177.562000 -39.081100 -0.002282 -0.040193 0.024487 -0.032503 33.104100 -40.985400 0.000008 0.000006 5.937110 8.925410 -73.229200 -11.754300 -0.000006 -0.000006 -0.609191 -0.744795 -18.018700
0.000000 0.000000 0.000000 0.000000 0.000000 -0.000000 0.116537 90.647400 2.307020 89.445000 -5.110450 5.071500 15.735700 0.000005 -0.000001 84.402100 88.327900 -84.515700 8.984550 -0.406207 -0.000000 -4.438140 -0.313848 -0.239565 16.377300 -0.000001 -0.000001 4.885990 -1.745250 1.673860 6.456720 -0.000001 -0.000000 1.373190 -0.638741 2.886680 12.994200 -0.242716 4.980390 -87.316400 -7.153870 -69.379100 5.348090 -0.000007 -0.000001 -23.085300 -47.256400 -38.047400 24.328600 0.000019 0.000005 10.399600 11.018000 -43.833900 22.291600 -0.000001 0.000005 26.019500 5.289090 0.407580 12.994500 -0.242716 -4.980390 91.316500 -5.529840 -76.595100 -5.348130 -0.000001 -0.000004 -26.719100 -44.503900 -42.716300 -24.328900 0.000322 -0.000009 -7.725840 -8.903380 -41.390500 -22.291500 -0.000108 -0.000004 22.375900 5.649910 -14.301500 -2.192480 -6.469440 -0.000000 -175.911000 -12.925400 -2.567420 39.081100 -0.000007 -0.000012 -0.210085 0.361759 30.145500 40.985400 -0.000006 -0.000013 -0.390513 2.508360 -72.259900 11.754300 -0.000000 0.000003 -0.000143 -0.001393 -16.630600 -2.192510 6.469440 -0.000001 175.609000 16.118400 177.857000 -39.081100 -0.002282 -0.040193 0.016866 -0.023005 30.526300 -40.985400 0.000008 0.000006 6.067110 10.979800 -72.928100 -11.754300 -0.000006 -0.000006 -0.166317 -0.217209 -17.545100
0.000000 0.000000 0.000000 0.000000 0.000000 -0.000000 0.193140 90.814300 2.193580 89.350100 -4.378260 4.592310 15.735700 0.000005 -0.000001 87.809500 88.480000 -87.795300 8.984550 -0.406207 -0.000000 -4.728320 -0.117629 0.023536 16.377300 -0.000001 -0.000001 3.647130 -2.439310 1.996610 6.456720 -0.000001 -0.000000 1.707340 -1.298020 1.636670 12.994200 -0.242716 4.980390 -86.109300 -8.811310 -66.063900 5.348090 -0.000007 -0.000001 -30.370000 -55.347500 -54.510800 24.328600 0.000019 0.000005 11.736900 7.863850 -56.623100 22.291600 -0.000001 0.000005 30.603200 5.427340 -3.895900 12.994500 -0.242716 -4.980390 92.843900 -9.049720 -72.486000 -5.348130 -0.000001 -0.000004 -28.271800 -54.039500 -54.793100 -24.328900 0.000322 -0.000009 -4.358770 -3.029920 -55.261300 -22.291500 -0.000108 -0.000004 28.540000 5.679330 -19.443400 -2.192480 -6.469440 -0.000000 -176.077000 -12.242600 -2.923410 39.081100 -0.000007 -0.000012 -0.194680 0.344805 29.449800 40.985400 -0.000006 -0.000013 -0.328193 2.526740 -71.760400 11.754300 -0.000000 0.000003 -0.000150 -0.001453 -16.632800 -2.192510 6.469440 -0.000001 175.526000 17.711200 178.257000 -39.081100 -0.002282 -0.040193 0.013773 -0.018847 29.051700 -40.985400 0.000008 0.000006 6.148990 11.832200 -72.842300 -11.754300 -0.000006 -0.000006 -0.001360 -0.020392 -17.402300
